<svg preserveAspectRatio="none" overflow="visible" style="display: block;" width="19.7395" height="19.7395" viewBox="0 0 19.7395 19.7395" fill="none" xmlns="http://www.w3.org/2000/svg">
<g id="Icon">
<path id="Vector" d="M17.6175 8.98537C17.7648 8.92042 17.8897 8.8137 17.9769 8.67843C18.0641 8.54316 18.1097 8.38528 18.108 8.22436C18.1063 8.06344 18.0575 7.90654 17.9675 7.7731C17.8776 7.63966 17.7505 7.53555 17.6019 7.47365L10.5524 4.26268C10.3381 4.16493 10.1053 4.11434 9.86976 4.11434C9.63421 4.11434 9.40141 4.16493 9.1871 4.26268L2.13844 7.47036C1.99201 7.53449 1.86744 7.6399 1.77997 7.77371C1.6925 7.90751 1.64592 8.0639 1.64592 8.22375C1.64592 8.38361 1.6925 8.54 1.77997 8.6738C1.86744 8.8076 1.99201 8.91302 2.13844 8.97715L9.1871 12.1914C9.40141 12.2892 9.63421 12.3397 9.86976 12.3397C10.1053 12.3397 10.3381 12.2892 10.5524 12.1914L17.6175 8.98537Z" stroke="#64748B" stroke-width="1.64496" stroke-linecap="round" stroke-linejoin="round"/>
<path id="Vector_2" d="M18.0939 8.22032V13.1552" stroke="#64748B" stroke-width="1.64496" stroke-linecap="round" stroke-linejoin="round"/>
<path id="Vector_3" d="M4.93504 10.283V13.1616C4.93504 13.816 5.45496 14.4436 6.38043 14.9064C7.3059 15.3691 8.56111 15.6291 9.86992 15.6291C11.1787 15.6291 12.4339 15.3691 13.3594 14.9064C14.2849 14.4436 14.8048 13.816 14.8048 13.1616V10.283" stroke="#64748B" stroke-width="1.64496" stroke-linecap="round" stroke-linejoin="round"/>
</g>
</svg>
