<svg preserveAspectRatio="none" overflow="visible" style="display: block;" width="19.7395" height="19.7395" viewBox="0 0 19.7395 19.7395" fill="none" xmlns="http://www.w3.org/2000/svg">
<g id="Icon">
<path id="Vector" d="M12.3372 17.2695V10.6897C12.3372 10.4715 12.2506 10.2623 12.0963 10.1081C11.9421 9.95384 11.7329 9.86719 11.5147 9.86719H8.22482C8.00669 9.86719 7.79749 9.95384 7.64324 10.1081C7.489 10.2623 7.40234 10.4715 7.40234 10.6897V17.2695" stroke="#64748B" stroke-width="1.64496" stroke-linecap="round" stroke-linejoin="round"/>
<path id="Vector_2" d="M2.46777 8.22786C2.46772 7.98857 2.51986 7.75215 2.62058 7.5351C2.7213 7.31804 2.86816 7.12557 3.05091 6.97111L8.80828 2.03704C9.10518 1.78611 9.48136 1.64844 9.8701 1.64844C10.2588 1.64844 10.635 1.78611 10.9319 2.03704L16.6893 6.97111C16.8721 7.12557 17.0189 7.31804 17.1196 7.5351C17.2203 7.75215 17.2725 7.98857 17.2724 8.22786V15.6302C17.2724 16.0665 17.0991 16.4849 16.7906 16.7934C16.4821 17.1018 16.0637 17.2752 15.6275 17.2752H4.11274C3.67646 17.2752 3.25806 17.1018 2.94957 16.7934C2.64108 16.4849 2.46777 16.0665 2.46777 15.6302V8.22786Z" stroke="#64748B" stroke-width="1.64496" stroke-linecap="round" stroke-linejoin="round"/>
</g>
</svg>
