<svg preserveAspectRatio="none" overflow="visible" style="display: block;" width="19.7395" height="19.7395" viewBox="0 0 19.7395 19.7395" fill="none" xmlns="http://www.w3.org/2000/svg">
<g id="Icon">
<path id="Vector" d="M3.29047 11.5117C3.13483 11.5122 2.98223 11.4686 2.8504 11.3858C2.71858 11.3031 2.61294 11.1846 2.54576 11.0442C2.47857 10.9038 2.4526 10.7473 2.47087 10.5927C2.48913 10.4381 2.55088 10.2919 2.64894 10.171L10.7915 1.78173C10.8526 1.71123 10.9358 1.66359 11.0275 1.64662C11.1193 1.62966 11.214 1.64439 11.2963 1.68838C11.3785 1.73238 11.4434 1.80303 11.4802 1.88874C11.517 1.97445 11.5236 2.07013 11.4988 2.16007L9.91967 7.11141C9.8731 7.23603 9.85747 7.37009 9.8741 7.50209C9.89073 7.63409 9.93913 7.76008 10.0152 7.86926C10.0912 7.97844 10.1925 8.06755 10.3106 8.12895C10.4286 8.19034 10.5598 8.22219 10.6928 8.22176H16.4502C16.6058 8.22123 16.7584 8.26487 16.8902 8.34761C17.0221 8.43036 17.1277 8.54881 17.1949 8.68921C17.2621 8.8296 17.288 8.98618 17.2698 9.14075C17.2515 9.29532 17.1898 9.44153 17.0917 9.5624L8.94914 17.9517C8.88806 18.0222 8.80483 18.0699 8.7131 18.0868C8.62138 18.1038 8.52661 18.0891 8.44436 18.0451C8.36211 18.0011 8.29725 17.9304 8.26045 17.8447C8.22364 17.759 8.21707 17.6633 8.24181 17.5734L9.82097 12.622C9.86754 12.4974 9.88317 12.3633 9.86654 12.2313C9.84991 12.0993 9.80151 11.9734 9.72549 11.8642C9.64947 11.755 9.54809 11.6659 9.43007 11.6045C9.31204 11.5431 9.18088 11.5112 9.04784 11.5117H3.29047Z" stroke="#64748B" stroke-width="1.64496" stroke-linecap="round" stroke-linejoin="round"/>
</g>
</svg>
